<?xml version="1.0" standalone="no"?>
<!DOCTYPE svg PUBLIC "-//W3C//DTD SVG 20010904//EN"
 "http://www.w3.org/TR/2001/REC-SVG-20010904/DTD/svg10.dtd">
<svg version="1.0" xmlns="http://www.w3.org/2000/svg"
 width="32.000000pt" height="32.000000pt" viewBox="0 0 32.000000 32.000000"
 preserveAspectRatio="xMidYMid meet">

<g transform="translate(0.000000,32.000000) scale(0.100000,-0.100000)"
fill="#000000" stroke="none">
<path d="M67 262 c-50 -39 -56 -48 -43 -58 19 -13 22 -94 4 -112 -17 -17 11
-25 77 -20 52 3 68 -3 45 -17 -16 -10 -12 -45 5 -45 8 0 29 13 47 30 17 16 41
30 53 30 27 0 55 29 55 57 0 25 -30 53 -58 53 -12 0 -22 5 -22 11 0 5 4 8 9 5
15 -10 20 22 5 34 -8 7 -14 28 -14 46 0 30 -3 34 -25 34 -17 0 -25 -6 -25 -17
0 -15 -1 -15 -18 0 -10 10 -23 17 -28 17 -5 -1 -35 -22 -67 -48z m113 -23 c43
-35 55 -63 34 -80 -8 -6 -14 -22 -14 -35 0 -28 -8 -34 -42 -27 -23 4 -27 11
-30 47 -3 38 -5 41 -33 41 -28 0 -30 -3 -36 -45 l-6 -45 -1 57 c-2 55 -1 57
40 87 23 17 44 31 46 31 2 0 20 -14 42 -31z m104 -85 c9 -8 16 -22 16 -29 0
-18 -28 -45 -46 -45 -19 0 -54 -20 -75 -43 -19 -20 -29 -22 -29 -4 0 7 13 26
30 42 17 16 30 37 30 46 0 21 26 49 45 49 7 0 21 -7 29 -16z"/>
<path d="M140 165 c0 -28 25 -44 43 -26 8 8 5 11 -11 11 -13 0 -22 6 -22 15 0
8 9 15 20 15 11 0 20 -5 20 -11 0 -5 5 -7 10 -4 18 11 0 25 -31 25 -24 0 -29
-4 -29 -25z"/>
<path d="M251 146 c-9 -10 -8 -16 3 -25 10 -9 16 -8 25 3 9 10 8 16 -3 25 -10
9 -16 8 -25 -3z"/>
</g>
</svg>
