<?xml version="1.0" standalone="no"?>
<!DOCTYPE svg PUBLIC "-//W3C//DTD SVG 20010904//EN"
 "http://www.w3.org/TR/2001/REC-SVG-20010904/DTD/svg10.dtd">
<svg version="1.0" xmlns="http://www.w3.org/2000/svg"
 width="64.000000pt" height="64.000000pt" viewBox="0 0 64.000000 64.000000"
 preserveAspectRatio="xMidYMid meet">

<g transform="translate(0.000000,64.000000) scale(0.100000,-0.100000)"
fill="#000000" stroke="none">
<path d="M7 633 c-4 -3 -7 -46 -7 -95 l0 -88 49 0 c28 0 53 5 56 10 4 7 14 5
28 -5 27 -19 67 -19 94 0 20 14 23 14 33 -4 5 -11 10 -37 10 -59 0 -26 5 -42
14 -45 10 -4 16 -25 18 -64 3 -54 5 -58 28 -58 23 0 25 4 28 57 2 34 9 61 17
68 8 7 15 29 15 49 0 40 6 51 35 67 40 22 30 56 -34 117 l-60 57 -69 0 c-41 0
-85 -7 -107 -16 -35 -14 -39 -14 -47 0 -9 16 -87 23 -101 9z m345 -43 c30 -28
31 -30 8 -22 -14 5 -56 7 -93 4 -85 -6 -86 -26 -1 -30 32 -2 63 -8 69 -13 15
-15 -13 -29 -58 -29 -24 0 -44 -7 -57 -20 -26 -26 -53 -25 -84 4 -19 17 -26
33 -26 63 0 37 2 40 43 55 23 9 70 17 104 17 56 1 66 -2 95 -29z m29 -67 c13
-16 12 -17 -3 -4 -17 13 -22 21 -14 21 2 0 10 -8 17 -17z m49 -19 c0 -24 -17
-15 -22 11 -4 20 -3 23 8 14 8 -6 14 -18 14 -25z m-56 -22 c16 -18 14 -19 -44
-18 -33 0 -60 4 -60 8 0 5 12 8 28 8 15 0 34 5 42 10 8 5 15 10 16 10 0 0 8
-8 18 -18z m-34 -192 c0 -22 -4 -40 -10 -40 -5 0 -10 18 -10 40 0 22 5 40 10
40 6 0 10 -18 10 -40z"/>
<path d="M392 196 c-34 -7 -68 -18 -73 -23 -8 -8 -24 -7 -54 5 -37 13 -46 14
-60 2 -9 -8 -15 -24 -13 -39 3 -23 15 -31 118 -69 101 -39 120 -43 153 -34 22
5 37 6 37 0 0 -10 70 -42 77 -35 5 6 63 159 63 169 0 10 -39 21 -80 24 -19 1
-51 4 -70 7 -19 3 -63 0 -98 -7z m117 -17 c34 -12 37 -24 17 -72 -10 -25 -23
-36 -52 -45 -36 -11 -47 -9 -151 29 -66 24 -113 47 -113 54 0 32 57 19 98 -22
26 -27 29 -27 105 -12 71 15 77 34 7 25 -28 -4 -57 -9 -65 -12 -15 -6 -33 22
-21 33 3 4 36 12 73 19 38 6 68 12 69 13 1 0 15 -4 33 -10z"/>
</g>
</svg>
