<?xml version="1.0" standalone="no"?>
<!DOCTYPE svg PUBLIC "-//W3C//DTD SVG 20010904//EN"
 "http://www.w3.org/TR/2001/REC-SVG-20010904/DTD/svg10.dtd">
<svg version="1.0" xmlns="http://www.w3.org/2000/svg"
 width="32.000000pt" height="32.000000pt" viewBox="0 0 32.000000 32.000000"
 preserveAspectRatio="xMidYMid meet">

<g transform="translate(0.000000,32.000000) scale(0.100000,-0.100000)"
fill="#000000" stroke="none">
<path d="M55 311 c-38 -6 -40 -8 -47 -51 -15 -101 -6 -167 18 -129 4 7 23 -6
51 -33 l44 -43 29 17 c17 10 32 13 35 7 4 -5 16 -9 27 -9 11 0 34 -16 51 -35
30 -35 57 -46 57 -22 0 7 -16 28 -35 47 -20 19 -33 40 -31 46 3 7 -1 18 -9 24
-11 9 -11 16 3 40 17 29 17 29 -26 73 -27 28 -40 47 -33 51 38 24 -33 32 -134
17z m101 -82 c10 -17 -13 -36 -27 -22 -12 12 -4 33 11 33 5 0 12 -5 16 -11z
m-40 -40 c10 -17 -13 -36 -27 -22 -12 12 -4 33 11 33 5 0 12 -5 16 -11z m80 0
c10 -17 -13 -36 -27 -22 -12 12 -4 33 11 33 5 0 12 -5 16 -11z m-40 -40 c10
-17 -13 -36 -27 -22 -12 12 -4 33 11 33 5 0 12 -5 16 -11z"/>
</g>
</svg>
